<svg xmlns="http://www.w3.org/2000/svg" viewBox="0 0 320 180" width="320" height="180" role="img" aria-label="Video thumbnail 37">
  <defs>
    <linearGradient id="g37" gradientTransform="rotate(289 0.5 0.5)">
      <stop offset="0%" stop-color="hsl(270, 62%, 46%)"/>
      <stop offset="100%" stop-color="hsl(313, 64%, 30%)"/>
    </linearGradient>
  </defs>
  <rect width="320" height="180" fill="url(#g37)"/>
  <circle cx="166" cy="74" r="22" fill="#0b0b16"/><ellipse cx="166" cy="74" rx="52" ry="14" fill="none" stroke="hsl(110, 80%, 78%)" stroke-width="5" opacity="0.9"/>
  <circle cx="204.2" cy="176.6" r="1.85" fill="#ffffff" opacity="0.90"/><circle cx="304.2" cy="133.8" r="1.84" fill="#ffffff" opacity="0.92"/><circle cx="78.2" cy="157.0" r="1.31" fill="#ffffff" opacity="0.70"/><circle cx="309.4" cy="153.5" r="2.01" fill="#ffffff" opacity="0.96"/><circle cx="169.2" cy="123.8" r="1.61" fill="#ffffff" opacity="0.41"/><circle cx="239.2" cy="121.8" r="1.12" fill="#ffffff" opacity="0.82"/><path d="M 239.2 117.8 L 239.2 125.8 M 235.2 121.8 L 243.2 121.8" stroke="#ffffff" stroke-width="0.8" opacity="0.7"/><circle cx="307.2" cy="154.9" r="0.87" fill="#ffffff" opacity="0.46"/><circle cx="255.6" cy="23.4" r="1.34" fill="#ffffff" opacity="0.57"/><circle cx="203.9" cy="1.3" r="1.52" fill="#ffffff" opacity="0.83"/><circle cx="224.2" cy="15.8" r="2.17" fill="#ffffff" opacity="0.67"/><circle cx="270.2" cy="27.6" r="1.15" fill="#ffffff" opacity="0.84"/><circle cx="319.0" cy="170.3" r="0.87" fill="#ffffff" opacity="0.78"/><path d="M 319.0 166.3 L 319.0 174.3 M 315 170.3 L 323 170.3" stroke="#ffffff" stroke-width="0.8" opacity="0.7"/><circle cx="87.2" cy="111.4" r="0.67" fill="#ffffff" opacity="0.42"/><circle cx="239.6" cy="151.3" r="1.22" fill="#ffffff" opacity="0.67"/><circle cx="291.1" cy="104.0" r="1.12" fill="#ffffff" opacity="0.70"/><circle cx="242.8" cy="96.6" r="1.91" fill="#ffffff" opacity="0.97"/><circle cx="190.5" cy="49.7" r="1.68" fill="#ffffff" opacity="0.72"/><circle cx="146.9" cy="177.2" r="0.61" fill="#ffffff" opacity="0.66"/><circle cx="77.6" cy="166.3" r="0.66" fill="#ffffff" opacity="0.57"/><circle cx="149.5" cy="97.6" r="0.88" fill="#ffffff" opacity="0.44"/><circle cx="233.1" cy="45.0" r="1.30" fill="#ffffff" opacity="0.70"/><circle cx="258.4" cy="155.6" r="0.64" fill="#ffffff" opacity="0.47"/><circle cx="143.3" cy="130.1" r="0.78" fill="#ffffff" opacity="0.47"/>
  <circle cx="272" cy="40" r="30" fill="rgba(0,0,0,0.18)"/>
  <text x="272" y="40" font-size="40" text-anchor="middle"
    dominant-baseline="central" font-family="'Apple Color Emoji','Segoe UI Emoji','Noto Color Emoji',sans-serif">🕷️</text>
  <rect x="0" y="150" width="320" height="30" fill="rgba(0,0,0,0.22)"/>
  <text x="12" y="170" font-family="Roboto, Arial, sans-serif" font-size="13" font-weight="600" fill="#ffffff">Video 37</text>
  <text x="308" y="170" text-anchor="end" font-family="Roboto, Arial, sans-serif" font-size="12" fill="rgba(255,255,255,0.85)">🕷️</text>
</svg>
