<svg xmlns="http://www.w3.org/2000/svg" viewBox="0 0 320 180" width="320" height="180" role="img" aria-label="Video thumbnail 80">
  <defs>
    <linearGradient id="g80" gradientTransform="rotate(80 0.5 0.5)">
      <stop offset="0%" stop-color="hsl(63, 83%, 52%)"/>
      <stop offset="100%" stop-color="hsl(130, 82%, 42%)"/>
    </linearGradient>
  </defs>
  <rect width="320" height="180" fill="url(#g80)"/>
  <path d="M 120 120 q 40 -60 80 -40" stroke="hsl(263, 80%, 78%)" stroke-width="4" fill="none" opacity="0.8"/><path d="M 190 74 l 14 -10 -14 -10 z" fill="hsl(351, 70%, 62%)"/><circle cx="120" cy="120" r="12" fill="hsl(31, 72%, 70%)"/>
  <circle cx="186.3" cy="34.0" r="2.29" fill="#ffffff" opacity="0.71"/><circle cx="224.2" cy="146.8" r="1.01" fill="#ffffff" opacity="0.46"/><path d="M 224.2 142.8 L 224.2 150.8 M 220.2 146.8 L 228.2 146.8" stroke="#ffffff" stroke-width="0.8" opacity="0.7"/><circle cx="290.6" cy="98.3" r="0.87" fill="#ffffff" opacity="0.75"/><circle cx="7.3" cy="122.7" r="1.09" fill="#ffffff" opacity="0.95"/><circle cx="122.0" cy="46.9" r="2.00" fill="#ffffff" opacity="0.53"/><circle cx="197.0" cy="31.7" r="2.28" fill="#ffffff" opacity="0.72"/><circle cx="32.0" cy="170.9" r="0.93" fill="#ffffff" opacity="0.63"/><circle cx="19.0" cy="31.7" r="2.29" fill="#ffffff" opacity="0.84"/><path d="M 19.0 27.7 L 19.0 35.7 M 15 31.7 L 23 31.7" stroke="#ffffff" stroke-width="0.8" opacity="0.7"/><circle cx="111.6" cy="114.6" r="0.64" fill="#ffffff" opacity="0.95"/><circle cx="287.1" cy="13.7" r="1.97" fill="#ffffff" opacity="0.98"/><circle cx="262.0" cy="116.0" r="2.03" fill="#ffffff" opacity="0.86"/><circle cx="61.0" cy="2.1" r="1.49" fill="#ffffff" opacity="0.90"/><path d="M 61.0 -1.9 L 61.0 6.1 M 57 2.1 L 65 2.1" stroke="#ffffff" stroke-width="0.8" opacity="0.7"/><circle cx="159.2" cy="26.0" r="0.75" fill="#ffffff" opacity="0.87"/><circle cx="237.6" cy="134.9" r="1.36" fill="#ffffff" opacity="0.62"/><circle cx="71.9" cy="69.2" r="1.39" fill="#ffffff" opacity="0.61"/><circle cx="315.0" cy="43.0" r="1.03" fill="#ffffff" opacity="0.93"/><circle cx="292.4" cy="103.4" r="2.24" fill="#ffffff" opacity="0.78"/><circle cx="170.9" cy="150.9" r="2.28" fill="#ffffff" opacity="0.74"/><path d="M 170.9 146.9 L 170.9 154.9 M 166.9 150.9 L 174.9 150.9" stroke="#ffffff" stroke-width="0.8" opacity="0.7"/><circle cx="141.2" cy="79.5" r="1.16" fill="#ffffff" opacity="0.64"/><circle cx="133.2" cy="36.4" r="1.21" fill="#ffffff" opacity="0.80"/><circle cx="64.8" cy="82.2" r="0.72" fill="#ffffff" opacity="0.74"/><circle cx="304.5" cy="150.6" r="1.28" fill="#ffffff" opacity="0.62"/><circle cx="106.5" cy="129.1" r="2.03" fill="#ffffff" opacity="0.71"/><circle cx="100.1" cy="58.0" r="2.25" fill="#ffffff" opacity="0.65"/><circle cx="191.4" cy="91.4" r="1.54" fill="#ffffff" opacity="0.93"/><circle cx="239.1" cy="36.3" r="1.25" fill="#ffffff" opacity="0.56"/><path d="M 239.1 32.3 L 239.1 40.3 M 235.1 36.3 L 243.1 36.3" stroke="#ffffff" stroke-width="0.8" opacity="0.7"/><circle cx="303.6" cy="93.4" r="1.63" fill="#ffffff" opacity="0.52"/><path d="M 303.6 89.4 L 303.6 97.4 M 299.6 93.4 L 307.6 93.4" stroke="#ffffff" stroke-width="0.8" opacity="0.7"/><circle cx="148.7" cy="96.6" r="2.11" fill="#ffffff" opacity="0.43"/><circle cx="237.7" cy="133.1" r="0.81" fill="#ffffff" opacity="0.42"/><path d="M 237.7 129.1 L 237.7 137.1 M 233.7 133.1 L 241.7 133.1" stroke="#ffffff" stroke-width="0.8" opacity="0.7"/><circle cx="61.9" cy="23.5" r="0.81" fill="#ffffff" opacity="0.41"/>
  <circle cx="272" cy="40" r="30" fill="rgba(0,0,0,0.18)"/>
  <text x="272" y="40" font-size="40" text-anchor="middle"
    dominant-baseline="central" font-family="'Apple Color Emoji','Segoe UI Emoji','Noto Color Emoji',sans-serif">🐇</text>
  <rect x="0" y="150" width="320" height="30" fill="rgba(0,0,0,0.22)"/>
  <text x="12" y="170" font-family="Roboto, Arial, sans-serif" font-size="13" font-weight="600" fill="#ffffff">Video 80</text>
  <text x="308" y="170" text-anchor="end" font-family="Roboto, Arial, sans-serif" font-size="12" fill="rgba(255,255,255,0.85)">🐇</text>
</svg>
