<svg xmlns="http://www.w3.org/2000/svg" viewBox="0 0 320 180" width="320" height="180" role="img" aria-label="Video thumbnail 59">
  <defs>
    <linearGradient id="g59" gradientTransform="rotate(23 0.5 0.5)">
      <stop offset="0%" stop-color="hsl(55, 76%, 52%)"/>
      <stop offset="100%" stop-color="hsl(114, 76%, 38%)"/>
    </linearGradient>
  </defs>
  <rect width="320" height="180" fill="url(#g59)"/>
  <circle cx="172" cy="74" r="26" fill="hsl(343, 70%, 62%)"/><rect x="169" y="36" width="6" height="76" fill="hsl(23, 72%, 70%)"/><rect x="138" y="70" width="68" height="6" fill="hsl(23, 72%, 70%)"/>
  <circle cx="9.0" cy="86.9" r="1.37" fill="#ffffff" opacity="0.79"/><circle cx="188.8" cy="127.9" r="1.24" fill="#ffffff" opacity="0.68"/><circle cx="186.9" cy="89.3" r="2.09" fill="#ffffff" opacity="0.93"/><circle cx="229.3" cy="125.1" r="1.71" fill="#ffffff" opacity="0.83"/><circle cx="174.8" cy="42.6" r="1.44" fill="#ffffff" opacity="0.57"/><circle cx="83.7" cy="42.2" r="1.55" fill="#ffffff" opacity="0.53"/><circle cx="39.9" cy="137.9" r="1.44" fill="#ffffff" opacity="0.95"/><circle cx="186.7" cy="56.9" r="1.07" fill="#ffffff" opacity="0.75"/><circle cx="15.3" cy="159.7" r="1.70" fill="#ffffff" opacity="0.45"/><path d="M 15.3 155.7 L 15.3 163.7 M 11.3 159.7 L 19.3 159.7" stroke="#ffffff" stroke-width="0.8" opacity="0.7"/><circle cx="107.6" cy="140.3" r="0.73" fill="#ffffff" opacity="0.60"/><circle cx="251.1" cy="5.8" r="2.10" fill="#ffffff" opacity="0.68"/><circle cx="8.4" cy="96.8" r="0.89" fill="#ffffff" opacity="0.73"/><circle cx="138.9" cy="147.3" r="1.51" fill="#ffffff" opacity="0.44"/><circle cx="74.8" cy="84.3" r="1.08" fill="#ffffff" opacity="0.41"/><circle cx="89.7" cy="48.5" r="1.09" fill="#ffffff" opacity="0.82"/><circle cx="160.7" cy="173.8" r="2.13" fill="#ffffff" opacity="0.51"/><circle cx="4.5" cy="127.4" r="1.75" fill="#ffffff" opacity="0.59"/><circle cx="285.7" cy="29.8" r="0.63" fill="#ffffff" opacity="0.79"/><path d="M 285.7 25.8 L 285.7 33.8 M 281.7 29.8 L 289.7 29.8" stroke="#ffffff" stroke-width="0.8" opacity="0.7"/><circle cx="199.5" cy="54.9" r="0.95" fill="#ffffff" opacity="0.85"/><circle cx="66.7" cy="150.0" r="0.67" fill="#ffffff" opacity="0.66"/><circle cx="303.3" cy="55.6" r="1.46" fill="#ffffff" opacity="0.66"/><circle cx="282.0" cy="165.6" r="1.72" fill="#ffffff" opacity="0.94"/><circle cx="288.2" cy="167.3" r="1.59" fill="#ffffff" opacity="0.69"/><circle cx="169.0" cy="141.1" r="1.94" fill="#ffffff" opacity="0.50"/><circle cx="114.8" cy="160.9" r="0.98" fill="#ffffff" opacity="0.80"/><circle cx="55.7" cy="14.1" r="1.05" fill="#ffffff" opacity="0.71"/><circle cx="229.5" cy="121.1" r="2.22" fill="#ffffff" opacity="0.96"/><circle cx="44.7" cy="55.8" r="0.69" fill="#ffffff" opacity="0.49"/><circle cx="35.7" cy="65.5" r="1.01" fill="#ffffff" opacity="0.79"/><circle cx="191.5" cy="10.7" r="0.64" fill="#ffffff" opacity="0.88"/><circle cx="98.3" cy="45.2" r="1.00" fill="#ffffff" opacity="0.67"/><circle cx="255.0" cy="156.5" r="1.61" fill="#ffffff" opacity="0.96"/><path d="M 255.0 152.5 L 255.0 160.5 M 251 156.5 L 259 156.5" stroke="#ffffff" stroke-width="0.8" opacity="0.7"/><circle cx="81.6" cy="4.8" r="0.96" fill="#ffffff" opacity="0.92"/>
  <circle cx="272" cy="40" r="30" fill="rgba(0,0,0,0.18)"/>
  <text x="272" y="40" font-size="40" text-anchor="middle"
    dominant-baseline="central" font-family="'Apple Color Emoji','Segoe UI Emoji','Noto Color Emoji',sans-serif">🦨</text>
  <rect x="0" y="150" width="320" height="30" fill="rgba(0,0,0,0.22)"/>
  <text x="12" y="170" font-family="Roboto, Arial, sans-serif" font-size="13" font-weight="600" fill="#ffffff">Video 59</text>
  <text x="308" y="170" text-anchor="end" font-family="Roboto, Arial, sans-serif" font-size="12" fill="rgba(255,255,255,0.85)">🦨</text>
</svg>
