<svg xmlns="http://www.w3.org/2000/svg" viewBox="0 0 320 180" width="320" height="180" role="img" aria-label="Video thumbnail 41">
  <defs>
    <linearGradient id="g41" gradientTransform="rotate(77 0.5 0.5)">
      <stop offset="0%" stop-color="hsl(100, 62%, 52%)"/>
      <stop offset="100%" stop-color="hsl(135, 58%, 30%)"/>
    </linearGradient>
  </defs>
  <rect width="320" height="180" fill="url(#g41)"/>
  <circle cx="163" cy="76" r="30" fill="hsl(10, 70%, 62%)"/><circle cx="154" cy="68" r="7" fill="hsl(50, 72%, 70%)" opacity="0.85"/><circle cx="174" cy="86" r="5" fill="hsl(50, 72%, 70%)" opacity="0.7"/>
  <circle cx="314.1" cy="29.4" r="1.60" fill="#ffffff" opacity="0.77"/><circle cx="21.4" cy="34.5" r="2.22" fill="#ffffff" opacity="0.88"/><circle cx="97.9" cy="30.1" r="2.11" fill="#ffffff" opacity="0.58"/><circle cx="236.6" cy="50.1" r="1.47" fill="#ffffff" opacity="0.55"/><circle cx="82.9" cy="141.8" r="2.23" fill="#ffffff" opacity="0.60"/><circle cx="123.6" cy="25.6" r="1.69" fill="#ffffff" opacity="0.72"/><circle cx="229.5" cy="135.4" r="1.63" fill="#ffffff" opacity="0.71"/><circle cx="10.3" cy="78.6" r="0.80" fill="#ffffff" opacity="0.93"/><path d="M 10.3 74.6 L 10.3 82.6 M 6.300000000000001 78.6 L 14.3 78.6" stroke="#ffffff" stroke-width="0.8" opacity="0.7"/><circle cx="24.2" cy="95.6" r="1.06" fill="#ffffff" opacity="0.87"/><circle cx="319.4" cy="120.3" r="2.24" fill="#ffffff" opacity="0.71"/><circle cx="150.3" cy="40.0" r="1.65" fill="#ffffff" opacity="0.70"/><circle cx="146.2" cy="75.2" r="2.19" fill="#ffffff" opacity="0.50"/><circle cx="213.0" cy="19.7" r="1.64" fill="#ffffff" opacity="0.59"/><circle cx="209.6" cy="41.0" r="1.36" fill="#ffffff" opacity="0.57"/><circle cx="196.3" cy="159.3" r="1.60" fill="#ffffff" opacity="0.83"/><path d="M 196.3 155.3 L 196.3 163.3 M 192.3 159.3 L 200.3 159.3" stroke="#ffffff" stroke-width="0.8" opacity="0.7"/><circle cx="257.0" cy="28.8" r="1.79" fill="#ffffff" opacity="0.99"/><circle cx="214.8" cy="96.5" r="1.85" fill="#ffffff" opacity="0.59"/><circle cx="201.3" cy="3.1" r="1.27" fill="#ffffff" opacity="0.74"/><circle cx="158.0" cy="162.4" r="1.04" fill="#ffffff" opacity="0.78"/><circle cx="192.6" cy="41.7" r="1.50" fill="#ffffff" opacity="0.81"/><circle cx="187.7" cy="161.4" r="1.33" fill="#ffffff" opacity="0.85"/><circle cx="262.7" cy="75.6" r="1.33" fill="#ffffff" opacity="0.61"/><circle cx="169.7" cy="71.4" r="2.24" fill="#ffffff" opacity="0.68"/><circle cx="182.3" cy="109.4" r="1.93" fill="#ffffff" opacity="0.64"/><circle cx="277.8" cy="143.4" r="1.02" fill="#ffffff" opacity="0.51"/><circle cx="172.7" cy="20.7" r="0.63" fill="#ffffff" opacity="0.84"/><circle cx="211.7" cy="41.9" r="1.44" fill="#ffffff" opacity="0.73"/>
  <circle cx="272" cy="40" r="30" fill="rgba(0,0,0,0.18)"/>
  <text x="272" y="40" font-size="40" text-anchor="middle"
    dominant-baseline="central" font-family="'Apple Color Emoji','Segoe UI Emoji','Noto Color Emoji',sans-serif">🦎</text>
  <rect x="0" y="150" width="320" height="30" fill="rgba(0,0,0,0.22)"/>
  <text x="12" y="170" font-family="Roboto, Arial, sans-serif" font-size="13" font-weight="600" fill="#ffffff">Video 41</text>
  <text x="308" y="170" text-anchor="end" font-family="Roboto, Arial, sans-serif" font-size="12" fill="rgba(255,255,255,0.85)">🦎</text>
</svg>
