<svg xmlns="http://www.w3.org/2000/svg" viewBox="0 0 320 180" width="320" height="180" role="img" aria-label="Video thumbnail 92">
  <defs>
    <linearGradient id="g92" gradientTransform="rotate(164 0.5 0.5)">
      <stop offset="0%" stop-color="hsl(273, 83%, 52%)"/>
      <stop offset="100%" stop-color="hsl(316, 64%, 42%)"/>
    </linearGradient>
  </defs>
  <rect width="320" height="180" fill="url(#g92)"/>
  <circle cx="212.0" cy="74.0" r="4" fill="hsl(253, 72%, 70%)"/><circle cx="201.2" cy="93.3" r="6" fill="hsl(213, 70%, 62%)"/><circle cx="174.0" cy="103.5" r="8" fill="hsl(253, 72%, 70%)"/><circle cx="143.0" cy="100.0" r="4" fill="hsl(213, 70%, 62%)"/><circle cx="122.8" cy="84.3" r="6" fill="hsl(253, 72%, 70%)"/><circle cx="122.8" cy="63.7" r="8" fill="hsl(213, 70%, 62%)"/><circle cx="143.0" cy="48.0" r="4" fill="hsl(253, 72%, 70%)"/><circle cx="174.0" cy="44.5" r="6" fill="hsl(213, 70%, 62%)"/><circle cx="201.2" cy="54.7" r="8" fill="hsl(253, 72%, 70%)"/><circle cx="166" cy="74" r="10" fill="#ffffff"/>
  <circle cx="196.2" cy="132.4" r="1.54" fill="#ffffff" opacity="0.92"/><path d="M 196.2 128.4 L 196.2 136.4 M 192.2 132.4 L 200.2 132.4" stroke="#ffffff" stroke-width="0.8" opacity="0.7"/><circle cx="15.8" cy="29.0" r="2.16" fill="#ffffff" opacity="0.93"/><path d="M 15.8 25 L 15.8 33 M 11.8 29.0 L 19.8 29.0" stroke="#ffffff" stroke-width="0.8" opacity="0.7"/><circle cx="29.9" cy="77.8" r="1.46" fill="#ffffff" opacity="0.99"/><circle cx="109.1" cy="172.7" r="1.25" fill="#ffffff" opacity="0.94"/><circle cx="183.2" cy="100.8" r="2.07" fill="#ffffff" opacity="0.50"/><circle cx="170.4" cy="102.8" r="2.19" fill="#ffffff" opacity="1.00"/><circle cx="119.0" cy="112.5" r="1.41" fill="#ffffff" opacity="0.78"/><circle cx="243.2" cy="17.2" r="0.68" fill="#ffffff" opacity="0.72"/><circle cx="212.4" cy="37.4" r="1.06" fill="#ffffff" opacity="0.47"/><circle cx="252.6" cy="147.0" r="2.16" fill="#ffffff" opacity="0.51"/><circle cx="222.5" cy="153.2" r="1.73" fill="#ffffff" opacity="0.45"/><circle cx="182.5" cy="76.6" r="1.83" fill="#ffffff" opacity="0.66"/><circle cx="216.5" cy="111.0" r="1.86" fill="#ffffff" opacity="0.77"/><circle cx="147.7" cy="163.8" r="1.78" fill="#ffffff" opacity="0.91"/><path d="M 147.7 159.8 L 147.7 167.8 M 143.7 163.8 L 151.7 163.8" stroke="#ffffff" stroke-width="0.8" opacity="0.7"/><circle cx="107.5" cy="55.3" r="1.04" fill="#ffffff" opacity="0.41"/><circle cx="37.5" cy="19.7" r="0.66" fill="#ffffff" opacity="0.41"/><circle cx="45.5" cy="63.9" r="0.97" fill="#ffffff" opacity="0.98"/><circle cx="13.9" cy="168.7" r="0.65" fill="#ffffff" opacity="0.98"/><circle cx="62.2" cy="67.9" r="2.30" fill="#ffffff" opacity="0.68"/><circle cx="262.6" cy="48.7" r="1.26" fill="#ffffff" opacity="0.70"/><circle cx="248.5" cy="71.6" r="0.81" fill="#ffffff" opacity="0.61"/><path d="M 248.5 67.6 L 248.5 75.6 M 244.5 71.6 L 252.5 71.6" stroke="#ffffff" stroke-width="0.8" opacity="0.7"/><circle cx="317.3" cy="90.7" r="1.54" fill="#ffffff" opacity="0.44"/><circle cx="185.6" cy="133.0" r="1.00" fill="#ffffff" opacity="0.71"/><circle cx="197.9" cy="139.1" r="1.66" fill="#ffffff" opacity="0.56"/><circle cx="189.4" cy="103.0" r="2.12" fill="#ffffff" opacity="0.92"/><path d="M 189.4 99 L 189.4 107 M 185.4 103.0 L 193.4 103.0" stroke="#ffffff" stroke-width="0.8" opacity="0.7"/><circle cx="161.1" cy="151.9" r="2.13" fill="#ffffff" opacity="0.48"/><path d="M 161.1 147.9 L 161.1 155.9 M 157.1 151.9 L 165.1 151.9" stroke="#ffffff" stroke-width="0.8" opacity="0.7"/><circle cx="208.8" cy="26.2" r="1.56" fill="#ffffff" opacity="0.87"/><path d="M 208.8 22.2 L 208.8 30.2 M 204.8 26.2 L 212.8 26.2" stroke="#ffffff" stroke-width="0.8" opacity="0.7"/><circle cx="25.3" cy="120.0" r="0.60" fill="#ffffff" opacity="0.99"/><circle cx="216.0" cy="120.4" r="1.21" fill="#ffffff" opacity="0.64"/><circle cx="307.8" cy="107.9" r="0.65" fill="#ffffff" opacity="0.40"/>
  <circle cx="272" cy="40" r="30" fill="rgba(0,0,0,0.18)"/>
  <text x="272" y="40" font-size="40" text-anchor="middle"
    dominant-baseline="central" font-family="'Apple Color Emoji','Segoe UI Emoji','Noto Color Emoji',sans-serif">🦀</text>
  <rect x="0" y="150" width="320" height="30" fill="rgba(0,0,0,0.22)"/>
  <text x="12" y="170" font-family="Roboto, Arial, sans-serif" font-size="13" font-weight="600" fill="#ffffff">Video 92</text>
  <text x="308" y="170" text-anchor="end" font-family="Roboto, Arial, sans-serif" font-size="12" fill="rgba(255,255,255,0.85)">🦀</text>
</svg>
