<svg xmlns="http://www.w3.org/2000/svg" viewBox="0 0 320 180" width="320" height="180" role="img" aria-label="Video thumbnail 83">
  <defs>
    <linearGradient id="g83" gradientTransform="rotate(191 0.5 0.5)">
      <stop offset="0%" stop-color="hsl(116, 76%, 52%)"/>
      <stop offset="100%" stop-color="hsl(167, 70%, 38%)"/>
    </linearGradient>
  </defs>
  <rect width="320" height="180" fill="url(#g83)"/>
  <circle cx="139" cy="66" r="22" fill="hsl(26, 70%, 62%)"/><circle cx="203" cy="86" r="14" fill="hsl(66, 72%, 70%)"/>
  <circle cx="28.8" cy="103.6" r="1.65" fill="#ffffff" opacity="0.61"/><circle cx="92.1" cy="72.3" r="1.74" fill="#ffffff" opacity="0.43"/><circle cx="305.4" cy="48.2" r="1.47" fill="#ffffff" opacity="0.81"/><circle cx="112.7" cy="45.2" r="2.03" fill="#ffffff" opacity="0.80"/><circle cx="297.3" cy="150.4" r="1.57" fill="#ffffff" opacity="0.52"/><circle cx="30.4" cy="4.5" r="1.36" fill="#ffffff" opacity="0.49"/><circle cx="213.8" cy="21.3" r="0.60" fill="#ffffff" opacity="0.66"/><circle cx="315.1" cy="28.0" r="1.44" fill="#ffffff" opacity="0.51"/><circle cx="216.8" cy="5.3" r="0.74" fill="#ffffff" opacity="0.68"/><path d="M 216.8 1.2999999999999998 L 216.8 9.3 M 212.8 5.3 L 220.8 5.3" stroke="#ffffff" stroke-width="0.8" opacity="0.7"/><circle cx="38.5" cy="47.0" r="1.12" fill="#ffffff" opacity="0.86"/><circle cx="172.1" cy="80.3" r="1.50" fill="#ffffff" opacity="0.45"/><circle cx="251.4" cy="65.7" r="1.57" fill="#ffffff" opacity="0.84"/><circle cx="253.5" cy="137.3" r="1.93" fill="#ffffff" opacity="0.84"/><circle cx="215.1" cy="142.1" r="1.91" fill="#ffffff" opacity="1.00"/><circle cx="160.8" cy="20.8" r="2.20" fill="#ffffff" opacity="0.41"/><circle cx="245.7" cy="127.2" r="1.39" fill="#ffffff" opacity="0.65"/><path d="M 245.7 123.2 L 245.7 131.2 M 241.7 127.2 L 249.7 127.2" stroke="#ffffff" stroke-width="0.8" opacity="0.7"/><circle cx="150.7" cy="48.5" r="1.02" fill="#ffffff" opacity="0.98"/><circle cx="291.7" cy="65.4" r="0.97" fill="#ffffff" opacity="0.65"/><circle cx="41.5" cy="31.6" r="1.44" fill="#ffffff" opacity="0.95"/><circle cx="5.5" cy="174.5" r="0.77" fill="#ffffff" opacity="0.47"/><circle cx="30.7" cy="34.5" r="1.64" fill="#ffffff" opacity="0.41"/><circle cx="307.7" cy="45.6" r="2.24" fill="#ffffff" opacity="0.57"/><circle cx="126.3" cy="175.0" r="1.32" fill="#ffffff" opacity="0.71"/><circle cx="44.6" cy="123.3" r="0.75" fill="#ffffff" opacity="0.92"/><circle cx="110.9" cy="4.3" r="2.14" fill="#ffffff" opacity="0.78"/><circle cx="219.6" cy="65.2" r="1.02" fill="#ffffff" opacity="0.54"/><path d="M 219.6 61.2 L 219.6 69.2 M 215.6 65.2 L 223.6 65.2" stroke="#ffffff" stroke-width="0.8" opacity="0.7"/><circle cx="39.9" cy="166.6" r="2.06" fill="#ffffff" opacity="0.46"/><circle cx="117.8" cy="102.5" r="1.28" fill="#ffffff" opacity="0.42"/><path d="M 117.8 98.5 L 117.8 106.5 M 113.8 102.5 L 121.8 102.5" stroke="#ffffff" stroke-width="0.8" opacity="0.7"/><circle cx="312.3" cy="39.9" r="1.81" fill="#ffffff" opacity="0.63"/><circle cx="43.4" cy="179.6" r="2.12" fill="#ffffff" opacity="0.86"/><circle cx="35.2" cy="175.3" r="1.62" fill="#ffffff" opacity="0.74"/><circle cx="110.8" cy="114.3" r="2.04" fill="#ffffff" opacity="0.41"/><circle cx="81.7" cy="177.1" r="1.07" fill="#ffffff" opacity="0.97"/>
  <circle cx="272" cy="40" r="30" fill="rgba(0,0,0,0.18)"/>
  <text x="272" y="40" font-size="40" text-anchor="middle"
    dominant-baseline="central" font-family="'Apple Color Emoji','Segoe UI Emoji','Noto Color Emoji',sans-serif">🐲</text>
  <rect x="0" y="150" width="320" height="30" fill="rgba(0,0,0,0.22)"/>
  <text x="12" y="170" font-family="Roboto, Arial, sans-serif" font-size="13" font-weight="600" fill="#ffffff">Video 83</text>
  <text x="308" y="170" text-anchor="end" font-family="Roboto, Arial, sans-serif" font-size="12" fill="rgba(255,255,255,0.85)">🐲</text>
</svg>
