<svg xmlns="http://www.w3.org/2000/svg" viewBox="0 0 320 180" width="320" height="180" role="img" aria-label="Video thumbnail 35">
  <defs>
    <linearGradient id="g35" gradientTransform="rotate(215 0.5 0.5)">
      <stop offset="0%" stop-color="hsl(355, 76%, 52%)"/>
      <stop offset="100%" stop-color="hsl(62, 82%, 38%)"/>
    </linearGradient>
  </defs>
  <rect width="320" height="180" fill="url(#g35)"/>
  <circle cx="160" cy="80" r="20" fill="hsl(259, 70%, 62%)"/><circle cx="70.0" cy="60.0" r="2" fill="hsl(299, 72%, 70%)"/><circle cx="90.0" cy="53.0" r="3" fill="hsl(299, 72%, 70%)"/><circle cx="110.0" cy="46.0" r="4" fill="hsl(299, 72%, 70%)"/><circle cx="130.0" cy="60.0" r="2" fill="hsl(299, 72%, 70%)"/><circle cx="150.0" cy="53.0" r="3" fill="hsl(299, 72%, 70%)"/><circle cx="170.0" cy="46.0" r="4" fill="hsl(299, 72%, 70%)"/><circle cx="190.0" cy="60.0" r="2" fill="hsl(299, 72%, 70%)"/><circle cx="210.0" cy="53.0" r="3" fill="hsl(299, 72%, 70%)"/><circle cx="230.0" cy="46.0" r="4" fill="hsl(299, 72%, 70%)"/><circle cx="250.0" cy="60.0" r="2" fill="hsl(299, 72%, 70%)"/>
  <circle cx="309.2" cy="70.3" r="1.08" fill="#ffffff" opacity="0.96"/><circle cx="285.6" cy="3.4" r="0.74" fill="#ffffff" opacity="0.94"/><circle cx="68.3" cy="130.4" r="0.91" fill="#ffffff" opacity="0.46"/><circle cx="25.8" cy="25.1" r="1.38" fill="#ffffff" opacity="0.86"/><circle cx="52.3" cy="114.8" r="1.30" fill="#ffffff" opacity="0.62"/><circle cx="137.0" cy="80.0" r="1.73" fill="#ffffff" opacity="0.58"/><circle cx="186.0" cy="74.6" r="2.29" fill="#ffffff" opacity="0.63"/><circle cx="58.2" cy="85.8" r="0.70" fill="#ffffff" opacity="0.99"/><circle cx="133.8" cy="134.2" r="0.85" fill="#ffffff" opacity="0.82"/><path d="M 133.8 130.2 L 133.8 138.2 M 129.8 134.2 L 137.8 134.2" stroke="#ffffff" stroke-width="0.8" opacity="0.7"/><circle cx="176.7" cy="53.6" r="2.14" fill="#ffffff" opacity="0.94"/><circle cx="10.1" cy="111.4" r="0.90" fill="#ffffff" opacity="0.91"/><circle cx="85.4" cy="127.9" r="2.02" fill="#ffffff" opacity="0.62"/><circle cx="24.3" cy="157.2" r="1.09" fill="#ffffff" opacity="0.63"/><circle cx="254.6" cy="26.5" r="2.05" fill="#ffffff" opacity="0.42"/><circle cx="18.5" cy="76.3" r="1.78" fill="#ffffff" opacity="0.64"/><circle cx="75.7" cy="40.4" r="1.08" fill="#ffffff" opacity="0.96"/><path d="M 75.7 36.4 L 75.7 44.4 M 71.7 40.4 L 79.7 40.4" stroke="#ffffff" stroke-width="0.8" opacity="0.7"/><circle cx="178.3" cy="26.2" r="0.69" fill="#ffffff" opacity="0.79"/><circle cx="279.8" cy="174.2" r="2.08" fill="#ffffff" opacity="0.92"/><path d="M 279.8 170.2 L 279.8 178.2 M 275.8 174.2 L 283.8 174.2" stroke="#ffffff" stroke-width="0.8" opacity="0.7"/><circle cx="37.5" cy="78.2" r="2.26" fill="#ffffff" opacity="0.76"/><circle cx="127.9" cy="125.6" r="2.37" fill="#ffffff" opacity="0.86"/><circle cx="255.8" cy="76.7" r="1.28" fill="#ffffff" opacity="0.92"/><circle cx="256.3" cy="105.6" r="1.20" fill="#ffffff" opacity="0.70"/><circle cx="130.2" cy="159.5" r="1.86" fill="#ffffff" opacity="0.67"/><circle cx="293.4" cy="158.8" r="1.33" fill="#ffffff" opacity="0.68"/><circle cx="118.8" cy="137.6" r="1.63" fill="#ffffff" opacity="0.82"/><circle cx="211.7" cy="142.9" r="1.08" fill="#ffffff" opacity="0.88"/><circle cx="99.1" cy="75.5" r="2.37" fill="#ffffff" opacity="0.86"/><path d="M 99.1 71.5 L 99.1 79.5 M 95.1 75.5 L 103.1 75.5" stroke="#ffffff" stroke-width="0.8" opacity="0.7"/><circle cx="291.6" cy="9.1" r="1.90" fill="#ffffff" opacity="0.57"/><circle cx="79.1" cy="91.0" r="2.01" fill="#ffffff" opacity="0.94"/><circle cx="19.6" cy="21.8" r="0.96" fill="#ffffff" opacity="0.90"/><circle cx="161.5" cy="95.2" r="2.17" fill="#ffffff" opacity="0.60"/><circle cx="79.1" cy="18.7" r="1.18" fill="#ffffff" opacity="0.90"/><circle cx="81.6" cy="12.6" r="0.85" fill="#ffffff" opacity="0.86"/>
  <circle cx="272" cy="40" r="30" fill="rgba(0,0,0,0.18)"/>
  <text x="272" y="40" font-size="40" text-anchor="middle"
    dominant-baseline="central" font-family="'Apple Color Emoji','Segoe UI Emoji','Noto Color Emoji',sans-serif">🐞</text>
  <rect x="0" y="150" width="320" height="30" fill="rgba(0,0,0,0.22)"/>
  <text x="12" y="170" font-family="Roboto, Arial, sans-serif" font-size="13" font-weight="600" fill="#ffffff">Video 35</text>
  <text x="308" y="170" text-anchor="end" font-family="Roboto, Arial, sans-serif" font-size="12" fill="rgba(255,255,255,0.85)">🐞</text>
</svg>
