<svg xmlns="http://www.w3.org/2000/svg" viewBox="0 0 320 180" width="320" height="180" role="img" aria-label="Video thumbnail 60">
  <defs>
    <linearGradient id="g60" gradientTransform="rotate(60 0.5 0.5)">
      <stop offset="0%" stop-color="hsl(193, 83%, 58%)"/>
      <stop offset="100%" stop-color="hsl(260, 82%, 42%)"/>
    </linearGradient>
  </defs>
  <rect width="320" height="180" fill="url(#g60)"/>
  <path d="M 120 120 q 40 -60 80 -40" stroke="hsl(33, 80%, 78%)" stroke-width="4" fill="none" opacity="0.8"/><path d="M 190 74 l 14 -10 -14 -10 z" fill="hsl(115, 70%, 62%)"/><circle cx="120" cy="120" r="12" fill="hsl(155, 72%, 70%)"/>
  <circle cx="276.5" cy="50.1" r="1.75" fill="#ffffff" opacity="0.76"/><path d="M 276.5 46.1 L 276.5 54.1 M 272.5 50.1 L 280.5 50.1" stroke="#ffffff" stroke-width="0.8" opacity="0.7"/><circle cx="38.1" cy="103.1" r="0.89" fill="#ffffff" opacity="0.67"/><circle cx="191.8" cy="12.6" r="2.29" fill="#ffffff" opacity="0.75"/><circle cx="51.1" cy="99.3" r="2.02" fill="#ffffff" opacity="0.58"/><path d="M 51.1 95.3 L 51.1 103.3 M 47.1 99.3 L 55.1 99.3" stroke="#ffffff" stroke-width="0.8" opacity="0.7"/><circle cx="233.2" cy="137.1" r="0.69" fill="#ffffff" opacity="0.77"/><path d="M 233.2 133.1 L 233.2 141.1 M 229.2 137.1 L 237.2 137.1" stroke="#ffffff" stroke-width="0.8" opacity="0.7"/><circle cx="134.8" cy="153.2" r="1.24" fill="#ffffff" opacity="0.66"/><path d="M 134.8 149.2 L 134.8 157.2 M 130.8 153.2 L 138.8 153.2" stroke="#ffffff" stroke-width="0.8" opacity="0.7"/><circle cx="100.5" cy="88.1" r="0.73" fill="#ffffff" opacity="0.56"/><circle cx="285.3" cy="115.7" r="1.39" fill="#ffffff" opacity="0.84"/><circle cx="50.4" cy="3.3" r="1.13" fill="#ffffff" opacity="0.76"/><circle cx="131.4" cy="31.4" r="1.64" fill="#ffffff" opacity="0.76"/><circle cx="221.2" cy="53.9" r="1.33" fill="#ffffff" opacity="0.95"/><path d="M 221.2 49.9 L 221.2 57.9 M 217.2 53.9 L 225.2 53.9" stroke="#ffffff" stroke-width="0.8" opacity="0.7"/><circle cx="285.2" cy="118.0" r="2.12" fill="#ffffff" opacity="0.51"/><circle cx="170.4" cy="124.3" r="1.30" fill="#ffffff" opacity="0.63"/><circle cx="67.4" cy="146.7" r="0.67" fill="#ffffff" opacity="0.53"/><circle cx="226.0" cy="152.4" r="0.76" fill="#ffffff" opacity="0.56"/><circle cx="244.2" cy="21.9" r="1.65" fill="#ffffff" opacity="0.81"/><circle cx="170.6" cy="49.1" r="1.35" fill="#ffffff" opacity="0.85"/><path d="M 170.6 45.1 L 170.6 53.1 M 166.6 49.1 L 174.6 49.1" stroke="#ffffff" stroke-width="0.8" opacity="0.7"/><circle cx="219.3" cy="121.3" r="0.79" fill="#ffffff" opacity="0.95"/><circle cx="59.6" cy="99.0" r="1.05" fill="#ffffff" opacity="0.76"/><path d="M 59.6 95 L 59.6 103 M 55.6 99.0 L 63.6 99.0" stroke="#ffffff" stroke-width="0.8" opacity="0.7"/><circle cx="237.5" cy="136.0" r="1.73" fill="#ffffff" opacity="0.76"/><circle cx="291.9" cy="39.7" r="2.37" fill="#ffffff" opacity="0.55"/><circle cx="283.0" cy="10.6" r="1.44" fill="#ffffff" opacity="0.52"/>
  <circle cx="272" cy="40" r="30" fill="rgba(0,0,0,0.18)"/>
  <text x="272" y="40" font-size="40" text-anchor="middle"
    dominant-baseline="central" font-family="'Apple Color Emoji','Segoe UI Emoji','Noto Color Emoji',sans-serif">🦘</text>
  <rect x="0" y="150" width="320" height="30" fill="rgba(0,0,0,0.22)"/>
  <text x="12" y="170" font-family="Roboto, Arial, sans-serif" font-size="13" font-weight="600" fill="#ffffff">Video 60</text>
  <text x="308" y="170" text-anchor="end" font-family="Roboto, Arial, sans-serif" font-size="12" fill="rgba(255,255,255,0.85)">🦘</text>
</svg>
