<svg xmlns="http://www.w3.org/2000/svg" viewBox="0 0 320 180" width="320" height="180" role="img" aria-label="Video thumbnail 53">
  <defs>
    <linearGradient id="g53" gradientTransform="rotate(161 0.5 0.5)">
      <stop offset="0%" stop-color="hsl(310, 62%, 52%)"/>
      <stop offset="100%" stop-color="hsl(1, 70%, 30%)"/>
    </linearGradient>
  </defs>
  <rect width="320" height="180" fill="url(#g53)"/>
  <ellipse cx="169" cy="58" rx="24" ry="4" fill="hsl(272, 72%, 70%)" opacity="0.9"/><ellipse cx="169" cy="67" rx="29" ry="4" fill="hsl(232, 70%, 62%)" opacity="0.9"/><ellipse cx="169" cy="76" rx="34" ry="4" fill="hsl(272, 72%, 70%)" opacity="0.9"/><ellipse cx="169" cy="85" rx="29" ry="4" fill="hsl(232, 70%, 62%)" opacity="0.9"/><ellipse cx="169" cy="94" rx="24" ry="4" fill="hsl(272, 72%, 70%)" opacity="0.9"/>
  <circle cx="4.0" cy="127.8" r="0.84" fill="#ffffff" opacity="0.98"/><circle cx="133.0" cy="96.8" r="1.57" fill="#ffffff" opacity="0.75"/><circle cx="157.2" cy="9.6" r="0.90" fill="#ffffff" opacity="0.81"/><circle cx="18.4" cy="100.1" r="1.63" fill="#ffffff" opacity="0.54"/><circle cx="144.2" cy="15.7" r="2.30" fill="#ffffff" opacity="0.58"/><circle cx="97.0" cy="96.7" r="1.59" fill="#ffffff" opacity="1.00"/><circle cx="316.4" cy="77.1" r="2.11" fill="#ffffff" opacity="0.87"/><circle cx="234.5" cy="64.1" r="0.98" fill="#ffffff" opacity="0.81"/><circle cx="124.9" cy="18.4" r="1.49" fill="#ffffff" opacity="0.99"/><circle cx="284.8" cy="73.6" r="0.63" fill="#ffffff" opacity="0.84"/><circle cx="110.9" cy="77.2" r="1.35" fill="#ffffff" opacity="0.89"/><circle cx="267.7" cy="149.6" r="0.73" fill="#ffffff" opacity="0.85"/><circle cx="270.3" cy="104.8" r="0.95" fill="#ffffff" opacity="0.49"/><circle cx="119.8" cy="69.9" r="1.77" fill="#ffffff" opacity="0.86"/><path d="M 119.8 65.9 L 119.8 73.9 M 115.8 69.9 L 123.8 69.9" stroke="#ffffff" stroke-width="0.8" opacity="0.7"/><circle cx="231.9" cy="145.5" r="1.26" fill="#ffffff" opacity="0.63"/><path d="M 231.9 141.5 L 231.9 149.5 M 227.9 145.5 L 235.9 145.5" stroke="#ffffff" stroke-width="0.8" opacity="0.7"/><circle cx="299.5" cy="5.5" r="1.42" fill="#ffffff" opacity="0.47"/><circle cx="287.9" cy="57.1" r="2.39" fill="#ffffff" opacity="0.79"/><path d="M 287.9 53.1 L 287.9 61.1 M 283.9 57.1 L 291.9 57.1" stroke="#ffffff" stroke-width="0.8" opacity="0.7"/><circle cx="44.2" cy="20.9" r="1.44" fill="#ffffff" opacity="0.97"/><circle cx="79.0" cy="150.8" r="2.18" fill="#ffffff" opacity="0.83"/><circle cx="2.0" cy="53.9" r="1.55" fill="#ffffff" opacity="0.71"/><circle cx="51.4" cy="150.9" r="1.42" fill="#ffffff" opacity="0.72"/><circle cx="275.5" cy="15.6" r="1.59" fill="#ffffff" opacity="0.43"/><circle cx="248.7" cy="75.3" r="1.21" fill="#ffffff" opacity="0.68"/><circle cx="280.1" cy="10.5" r="1.34" fill="#ffffff" opacity="0.55"/><path d="M 280.1 6.5 L 280.1 14.5 M 276.1 10.5 L 284.1 10.5" stroke="#ffffff" stroke-width="0.8" opacity="0.7"/><circle cx="275.8" cy="155.1" r="1.59" fill="#ffffff" opacity="0.50"/><circle cx="94.7" cy="136.3" r="1.51" fill="#ffffff" opacity="0.76"/><circle cx="116.9" cy="154.7" r="1.36" fill="#ffffff" opacity="0.48"/>
  <circle cx="272" cy="40" r="30" fill="rgba(0,0,0,0.18)"/>
  <text x="272" y="40" font-size="40" text-anchor="middle"
    dominant-baseline="central" font-family="'Apple Color Emoji','Segoe UI Emoji','Noto Color Emoji',sans-serif">🦞</text>
  <rect x="0" y="150" width="320" height="30" fill="rgba(0,0,0,0.22)"/>
  <text x="12" y="170" font-family="Roboto, Arial, sans-serif" font-size="13" font-weight="600" fill="#ffffff">Video 53</text>
  <text x="308" y="170" text-anchor="end" font-family="Roboto, Arial, sans-serif" font-size="12" fill="rgba(255,255,255,0.85)">🦞</text>
</svg>
