<svg xmlns="http://www.w3.org/2000/svg" viewBox="0 0 320 180" width="320" height="180" role="img" aria-label="Video thumbnail 19">
  <defs>
    <linearGradient id="g19" gradientTransform="rotate(343 0.5 0.5)">
      <stop offset="0%" stop-color="hsl(315, 76%, 46%)"/>
      <stop offset="100%" stop-color="hsl(14, 76%, 38%)"/>
    </linearGradient>
  </defs>
  <rect width="320" height="180" fill="url(#g19)"/>
  <circle cx="172" cy="74" r="26" fill="hsl(231, 70%, 62%)"/><rect x="169" y="36" width="6" height="76" fill="hsl(271, 72%, 70%)"/><rect x="138" y="70" width="68" height="6" fill="hsl(271, 72%, 70%)"/>
  <circle cx="189.3" cy="119.1" r="2.08" fill="#ffffff" opacity="0.88"/><circle cx="136.8" cy="40.4" r="1.01" fill="#ffffff" opacity="0.52"/><circle cx="309.3" cy="97.8" r="1.33" fill="#ffffff" opacity="0.94"/><path d="M 309.3 93.8 L 309.3 101.8 M 305.3 97.8 L 313.3 97.8" stroke="#ffffff" stroke-width="0.8" opacity="0.7"/><circle cx="316.8" cy="78.4" r="1.77" fill="#ffffff" opacity="0.68"/><circle cx="77.3" cy="42.9" r="0.61" fill="#ffffff" opacity="0.45"/><circle cx="279.2" cy="105.2" r="1.26" fill="#ffffff" opacity="0.41"/><circle cx="176.8" cy="152.3" r="1.05" fill="#ffffff" opacity="0.82"/><circle cx="79.3" cy="45.0" r="1.06" fill="#ffffff" opacity="0.75"/><circle cx="212.8" cy="117.1" r="0.89" fill="#ffffff" opacity="0.66"/><path d="M 212.8 113.1 L 212.8 121.1 M 208.8 117.1 L 216.8 117.1" stroke="#ffffff" stroke-width="0.8" opacity="0.7"/><circle cx="116.1" cy="175.8" r="1.88" fill="#ffffff" opacity="0.77"/><circle cx="169.4" cy="61.7" r="0.70" fill="#ffffff" opacity="0.86"/><path d="M 169.4 57.7 L 169.4 65.7 M 165.4 61.7 L 173.4 61.7" stroke="#ffffff" stroke-width="0.8" opacity="0.7"/><circle cx="136.7" cy="148.7" r="2.16" fill="#ffffff" opacity="0.54"/><circle cx="161.3" cy="163.9" r="0.80" fill="#ffffff" opacity="0.57"/><circle cx="54.4" cy="108.0" r="1.49" fill="#ffffff" opacity="0.83"/><path d="M 54.4 104 L 54.4 112 M 50.4 108.0 L 58.4 108.0" stroke="#ffffff" stroke-width="0.8" opacity="0.7"/><circle cx="77.8" cy="34.8" r="1.64" fill="#ffffff" opacity="0.71"/><path d="M 77.8 30.799999999999997 L 77.8 38.8 M 73.8 34.8 L 81.8 34.8" stroke="#ffffff" stroke-width="0.8" opacity="0.7"/><circle cx="19.1" cy="131.5" r="1.57" fill="#ffffff" opacity="0.86"/><circle cx="80.8" cy="18.8" r="1.78" fill="#ffffff" opacity="0.73"/><circle cx="62.5" cy="150.5" r="1.25" fill="#ffffff" opacity="0.61"/><circle cx="36.1" cy="93.8" r="0.74" fill="#ffffff" opacity="0.50"/><circle cx="275.4" cy="169.2" r="1.71" fill="#ffffff" opacity="0.59"/><circle cx="117.5" cy="150.8" r="1.17" fill="#ffffff" opacity="0.89"/><path d="M 117.5 146.8 L 117.5 154.8 M 113.5 150.8 L 121.5 150.8" stroke="#ffffff" stroke-width="0.8" opacity="0.7"/><circle cx="239.1" cy="65.6" r="2.05" fill="#ffffff" opacity="0.74"/><circle cx="24.8" cy="34.3" r="1.43" fill="#ffffff" opacity="0.46"/><circle cx="269.7" cy="50.7" r="1.52" fill="#ffffff" opacity="1.00"/><circle cx="14.7" cy="62.0" r="2.06" fill="#ffffff" opacity="0.43"/><circle cx="315.7" cy="168.9" r="1.11" fill="#ffffff" opacity="1.00"/><circle cx="225.5" cy="45.1" r="0.68" fill="#ffffff" opacity="0.99"/><circle cx="29.5" cy="98.0" r="0.91" fill="#ffffff" opacity="0.82"/><circle cx="214.7" cy="48.0" r="0.87" fill="#ffffff" opacity="0.45"/>
  <circle cx="272" cy="40" r="30" fill="rgba(0,0,0,0.18)"/>
  <text x="272" y="40" font-size="40" text-anchor="middle"
    dominant-baseline="central" font-family="'Apple Color Emoji','Segoe UI Emoji','Noto Color Emoji',sans-serif">🐿️</text>
  <rect x="0" y="150" width="320" height="30" fill="rgba(0,0,0,0.22)"/>
  <text x="12" y="170" font-family="Roboto, Arial, sans-serif" font-size="13" font-weight="600" fill="#ffffff">Video 19</text>
  <text x="308" y="170" text-anchor="end" font-family="Roboto, Arial, sans-serif" font-size="12" fill="rgba(255,255,255,0.85)">🐿️</text>
</svg>
