<svg xmlns="http://www.w3.org/2000/svg" viewBox="0 0 320 180" width="320" height="180" role="img" aria-label="Video thumbnail 82">
  <defs>
    <linearGradient id="g82" gradientTransform="rotate(154 0.5 0.5)">
      <stop offset="0%" stop-color="hsl(338, 69%, 46%)"/>
      <stop offset="100%" stop-color="hsl(21, 64%, 34%)"/>
    </linearGradient>
  </defs>
  <rect width="320" height="180" fill="url(#g82)"/>
  <ellipse cx="166" cy="70" rx="46" ry="12" fill="none" stroke="hsl(294, 72%, 70%)" stroke-width="4" opacity="0.8"/><circle cx="166" cy="70" r="28" fill="hsl(254, 70%, 62%)"/><circle cx="157" cy="62" r="6" fill="hsl(294, 72%, 70%)" opacity="0.8"/>
  <circle cx="81.3" cy="140.4" r="1.27" fill="#ffffff" opacity="0.65"/><circle cx="242.8" cy="97.1" r="2.10" fill="#ffffff" opacity="0.44"/><circle cx="300.5" cy="124.9" r="1.27" fill="#ffffff" opacity="0.99"/><circle cx="290.9" cy="71.0" r="1.72" fill="#ffffff" opacity="0.45"/><circle cx="238.8" cy="55.9" r="2.31" fill="#ffffff" opacity="0.92"/><circle cx="299.3" cy="73.5" r="1.66" fill="#ffffff" opacity="0.97"/><circle cx="153.2" cy="71.1" r="1.31" fill="#ffffff" opacity="0.45"/><circle cx="216.4" cy="149.3" r="1.12" fill="#ffffff" opacity="0.42"/><circle cx="181.8" cy="161.8" r="1.31" fill="#ffffff" opacity="0.97"/><circle cx="14.7" cy="155.9" r="2.00" fill="#ffffff" opacity="0.70"/><circle cx="202.1" cy="32.2" r="2.28" fill="#ffffff" opacity="0.79"/><circle cx="294.6" cy="44.5" r="2.14" fill="#ffffff" opacity="0.46"/><circle cx="222.1" cy="160.2" r="2.14" fill="#ffffff" opacity="0.65"/><circle cx="222.6" cy="79.7" r="2.33" fill="#ffffff" opacity="0.87"/><circle cx="24.5" cy="96.9" r="0.73" fill="#ffffff" opacity="0.68"/><circle cx="162.1" cy="99.1" r="1.87" fill="#ffffff" opacity="0.95"/><circle cx="304.6" cy="126.8" r="1.43" fill="#ffffff" opacity="0.72"/><circle cx="38.1" cy="153.9" r="0.81" fill="#ffffff" opacity="0.48"/><circle cx="181.4" cy="167.6" r="1.35" fill="#ffffff" opacity="0.44"/><path d="M 181.4 163.6 L 181.4 171.6 M 177.4 167.6 L 185.4 167.6" stroke="#ffffff" stroke-width="0.8" opacity="0.7"/><circle cx="154.7" cy="8.5" r="1.52" fill="#ffffff" opacity="0.98"/><path d="M 154.7 4.5 L 154.7 12.5 M 150.7 8.5 L 158.7 8.5" stroke="#ffffff" stroke-width="0.8" opacity="0.7"/><circle cx="42.1" cy="50.4" r="0.73" fill="#ffffff" opacity="0.52"/><circle cx="306.6" cy="20.6" r="0.72" fill="#ffffff" opacity="0.99"/><circle cx="119.7" cy="99.7" r="0.96" fill="#ffffff" opacity="0.51"/><circle cx="63.1" cy="161.5" r="0.65" fill="#ffffff" opacity="0.83"/><path d="M 63.1 157.5 L 63.1 165.5 M 59.1 161.5 L 67.1 161.5" stroke="#ffffff" stroke-width="0.8" opacity="0.7"/><circle cx="244.4" cy="33.3" r="1.94" fill="#ffffff" opacity="0.83"/><circle cx="226.1" cy="55.6" r="1.69" fill="#ffffff" opacity="0.55"/><path d="M 226.1 51.6 L 226.1 59.6 M 222.1 55.6 L 230.1 55.6" stroke="#ffffff" stroke-width="0.8" opacity="0.7"/><circle cx="127.8" cy="142.2" r="0.72" fill="#ffffff" opacity="0.88"/><circle cx="21.5" cy="40.5" r="1.56" fill="#ffffff" opacity="0.62"/><circle cx="180.7" cy="71.0" r="2.08" fill="#ffffff" opacity="0.56"/><circle cx="262.9" cy="7.5" r="1.08" fill="#ffffff" opacity="0.71"/><circle cx="304.5" cy="57.3" r="1.52" fill="#ffffff" opacity="0.41"/><circle cx="10.1" cy="161.0" r="2.25" fill="#ffffff" opacity="0.58"/><path d="M 10.1 157 L 10.1 165 M 6.1 161.0 L 14.1 161.0" stroke="#ffffff" stroke-width="0.8" opacity="0.7"/>
  <circle cx="272" cy="40" r="30" fill="rgba(0,0,0,0.18)"/>
  <text x="272" y="40" font-size="40" text-anchor="middle"
    dominant-baseline="central" font-family="'Apple Color Emoji','Segoe UI Emoji','Noto Color Emoji',sans-serif">🦄</text>
  <rect x="0" y="150" width="320" height="30" fill="rgba(0,0,0,0.22)"/>
  <text x="12" y="170" font-family="Roboto, Arial, sans-serif" font-size="13" font-weight="600" fill="#ffffff">Video 82</text>
  <text x="308" y="170" text-anchor="end" font-family="Roboto, Arial, sans-serif" font-size="12" fill="rgba(255,255,255,0.85)">🦄</text>
</svg>
